<svg id="etuf3erTKOF1" xmlns="http://www.w3.org/2000/svg" xmlns:xlink="http://www.w3.org/1999/xlink" viewBox="0 0 987.94 672.06" shape-rendering="geometricPrecision" text-rendering="geometricPrecision">
<style><![CDATA[
#etuf3erTKOF5_to {animation: etuf3erTKOF5_to__to 3000ms linear infinite alternate-reverse forwards}@keyframes etuf3erTKOF5_to__to { 0% {transform: translate(196.922198px,-215.301177px)} 96.666667% {transform: translate(-386.74437px,-205.598595px)} 100% {transform: translate(-386.74437px,-205.598595px)}} #etuf3erTKOF6_to {animation: etuf3erTKOF6_to__to 3000ms linear infinite alternate-reverse forwards}@keyframes etuf3erTKOF6_to__to { 0% {transform: translate(-442.411991px,-449.87px)} 96.666667% {transform: translate(162.644393px,-473.74px)} 100% {transform: translate(162.644393px,-473.74px)}}
]]></style>
<path d="M521,692c0,0,30-143,68-209s97-249,362-232s284,108,327,209s108,86,133,139s13,66,13,66Z" transform="translate(-470.92-193.2)" fill="#f8f8ff"/><path d="M521,692c0,0,27,30,24,37s-74,85,56,111s641,38,712,6s46-48,20-81s51-1,68-35c10.291435-20.646486,18.015598-42.475641,23-65Z" transform="translate(-470.92-193.2)" fill="#f5f5fc"/><path d="M1422.14,626.83c0,0-102.14-100.35-397.14-38.35s-401-12.48-445-12.48-46.25,116.25-46.25,116.25l890.13-27.08l2.39-7.57c.43033-2.306905.558073-4.660068.38-7l-.38-4.6c-.120531-1.382052-.310773-2.757136-.57-4.12Z" transform="translate(-470.92-193.2)" fill="#e9edfa"/><g id="etuf3erTKOF5_to" transform="translate(-386.74437,-205.598595)"><path d="M520.62,691.64c0,0-111.81-56.37,0-86.86c0,0,49-126.6,137.69-16.63c0,0,81.32-8.32,83.17,46.2c0,0,17.56,12,44.36,14.79s28.65,24.95,23.1,31.42-24.94,8.31-24.94,8.31Z" transform="translate(0,0)" fill="#bac6f2"/></g><g id="etuf3erTKOF6_to" transform="translate(162.644393,-473.74)"><path d="M520.62,691.64c0,0-111.81-56.37,0-86.86c0,0,49-126.6,137.69-16.63c0,0,81.32-8.32,83.17,46.2c0,0,17.56,12,44.36,14.79s28.65,24.95,23.1,31.42-24.94,8.31-24.94,8.31Z" transform="translate(0,0)" fill="#bac6f2"/></g><path d="M1363.61,666.88l-.09-246.29c0,0-118.38-9.36-100.88-83.5c11.52-48.83,50.48-52.67,49.54-78.42-.68-18.6,16.23-94.76,67.33-53.27c40.37,32.78,21.4,59.81,42.25,63.65c21.35,3.93,47.4,39.84,32.92,60.9s1.65,21.84,1.65,32.37s8.56,41.15-34.88,49-51.86,10.42-51.86,10.42l3.65,245.09Z" transform="translate(-470.92-193.2)" fill="#b1c1f2"/><path d="M1335.28,667.85v-123.94c0,0-40.81-4.72-34.78-42.12c4-24.63,17.4-26.57,17.08-39.56-.23-9.38,5.6-47.8,23.21-26.87c13.92,16.53,7.38,30.17,14.56,32.11c7.36,2,16.34,20.1,11.35,30.72s.57,11,.57,16.33s3,20.76-12,24.74-15.4,4-15.4,4l.24,124.2Z" transform="translate(-470.92-193.2)" fill="#b1c1f2"/><path d="M1297.76,669l.12-208.45c0,0,84.11-7.92,71.68-70.7-8.19-41.35-35.87-44.6-35.2-66.39.48-15.75-11.53-80.23-47.84-45.1-28.68,27.75-15.2,50.64-30,53.89-15.17,3.33-33.68,33.73-23.39,51.57s-1.17,18.49-1.17,27.41-6.08,34.84,24.79,41.53s36.85,8.82,36.85,8.82l-2.3,207.54Z" transform="matrix(.999898-.014297 0.014297 0.999898-481.618214-201.147463)" fill="#bac6f2"/><circle r="23.87" transform="translate(315.12 218.48)" fill="#fff"/><circle r="23.87" transform="translate(234.38 217.9)" fill="#fff"/><circle r="32.15" transform="translate(275.64 216.88)" fill="#fff"/><circle r="23.87" transform="translate(617.74 165.1)" fill="#fff"/><circle r="32.15" transform="translate(658.99 164.09)" fill="#fff"/></svg>
